<?xml version="1.0" encoding="UTF-8"?><svg id="Capa_1" xmlns="http://www.w3.org/2000/svg" viewBox="0 0 73 73"><defs><style>.cls-1,.cls-2{fill:#27c116;}.cls-2,.cls-3{stroke:#fff;stroke-miterlimit:10;}.cls-3{fill:#fff;}</style></defs><path class="cls-1" d="M36.5,0C16.34,0,0,16.34,0,36.5s16.34,36.5,36.5,36.5,36.5-16.34,36.5-36.5S56.66,0,36.5,0Zm-7.04,55.94c-.7,.7-1.55,1.05-2.55,1.05s-1.85-.35-2.55-1.05-1.05-1.55-1.05-2.55,.35-1.85,1.05-2.55c.7-.7,1.55-1.05,2.55-1.05s1.85,.35,2.55,1.05,1.05,1.55,1.05,2.55-.35,1.85-1.05,2.55Zm20,0c-.7,.7-1.55,1.05-2.55,1.05s-1.85-.35-2.55-1.05-1.05-1.55-1.05-2.55,.35-1.85,1.05-2.55c.7-.7,1.55-1.05,2.55-1.05s1.85,.35,2.55,1.05,1.05,1.55,1.05,2.55-.35,1.85-1.05,2.55Zm4.55-31.8l-6.75,12.15c-.37,.63-.84,1.14-1.42,1.52-.58,.38-1.22,.57-1.92,.58h-15.15l-2.8,5.2h24.55v3H26.41c-1.4,0-2.41-.47-3.02-1.4-.62-.93-.61-1.98,.02-3.15l3.2-5.9-7.6-16.1h-3.9v-3h5.85l1.85,3.95h29.45c.77,0,1.35,.35,1.75,1.05,.4,.7,.4,1.4,0,2.1Z"/><path class="cls-1" d="M29.46,50.84c.7,.7,1.05,1.55,1.05,2.55s-.35,1.85-1.05,2.55c-.7,.7-1.55,1.05-2.55,1.05s-1.85-.35-2.55-1.05-1.05-1.55-1.05-2.55,.35-1.85,1.05-2.55c.7-.7,1.55-1.05,2.55-1.05s1.85,.35,2.55,1.05Z"/><path class="cls-1" d="M49.46,50.84c.7,.7,1.05,1.55,1.05,2.55s-.35,1.85-1.05,2.55c-.7,.7-1.55,1.05-2.55,1.05s-1.85-.35-2.55-1.05-1.05-1.55-1.05-2.55,.35-1.85,1.05-2.55c.7-.7,1.55-1.05,2.55-1.05s1.85,.35,2.55,1.05Z"/><path class="cls-1" d="M43.92,38.39c.7-.01,1.34-.2,1.92-.58,.58-.38,1.05-.89,1.42-1.52l6.75-12.15c.4-.7,.4-1.4,0-2.1-.4-.7-.98-1.05-1.75-1.05H22.81l-1.85-3.95h-5.85v3h3.9l7.6,16.1-3.2,5.9c-.63,1.17-.64,2.22-.02,3.15,.61,.93,1.62,1.4,3.02,1.4h24.11v-3H25.97l2.8-5.2h15.15Zm-19.61-14.4h26.15l-6.25,11.4h-14.4l-5.5-11.4Z"/><path class="cls-3" d="M29.46,50.84c-.7-.7-1.55-1.05-2.55-1.05s-1.85,.35-2.55,1.05c-.7,.7-1.05,1.55-1.05,2.55s.35,1.85,1.05,2.55,1.55,1.05,2.55,1.05,1.85-.35,2.55-1.05c.7-.7,1.05-1.55,1.05-2.55s-.35-1.85-1.05-2.55Zm20,0c-.7-.7-1.55-1.05-2.55-1.05s-1.85,.35-2.55,1.05c-.7,.7-1.05,1.55-1.05,2.55s.35,1.85,1.05,2.55,1.55,1.05,2.55,1.05,1.85-.35,2.55-1.05c.7-.7,1.05-1.55,1.05-2.55s-.35-1.85-1.05-2.55Zm-5.54-12.45c.7-.01,1.34-.2,1.92-.58,.58-.38,1.05-.89,1.42-1.52l6.75-12.15c.4-.7,.4-1.4,0-2.1-.4-.7-.98-1.05-1.75-1.05H22.81l-1.85-3.95h-5.85v3h3.9l7.6,16.1-3.2,5.9c-.63,1.17-.64,2.22-.02,3.15,.61,.93,1.62,1.4,3.02,1.4h24.11v-3H25.97l2.8-5.2h15.15Zm-19.61-14.4h26.15l-6.25,11.4h-14.4l-5.5-11.4Z"/><polygon class="cls-2" points="50.46 23.99 44.21 35.39 29.81 35.39 24.31 23.99 50.46 23.99"/></svg>